name C:\Users\u0101727\Documents\MyRepositories\upper-imu-dc\Results\main_tracking\Case_22\kinematics.mot
datacolumns 10
datarows 47
range 2.04000000 2.50000000
endheader 
time	clav_prot	clav_elev	scapula_abduction	scapula_elevation	scapula_upward_rot	scapula_winging	plane_elv	shoulder_elv	axial_rot	
          2.04000000	        -21.37194016	          7.88981786	         -6.63265430	          2.19407779	         25.16045919	         -0.08854991	         13.76659512	          7.94737048	         15.50902986	
          2.05000000	        -21.51465226	          7.53563585	         -7.34183849	          2.11552031	         24.33068932	          0.17531792	         12.51218374	          8.48325658	         16.44848534	
          2.06000000	        -21.36700785	          7.18269542	         -7.46308712	          2.03841337	         23.57946044	          0.41077629	         11.19879812	          8.94093403	         17.40074382	
          2.07000000	        -21.28436106	          6.86196902	         -7.68040396	          1.97308481	         22.87175086	          0.63542835	          9.87029292	          9.36468314	         18.30975291	
          2.08000000	        -21.24950050	          6.55090863	         -7.92911038	          1.89511241	         22.24191933	          0.83876783	          8.54819747	          9.73022567	         19.15275744	
          2.09000000	        -21.24549442	          6.22811895	         -8.14490846	          1.77977778	         21.72720665	          1.00935276	          7.28250669	         10.01299562	         19.88476786	
          2.10000000	        -21.28504798	          5.93529251	         -8.38975387	          1.66368620	         21.29945325	          1.15508956	          6.08625699	         10.23379757	         20.48546077	
          2.11000000	        -21.28206873	          5.69459804	         -8.54300744	          1.57658013	         20.92364215	          1.28228333	          4.97319415	         10.41820655	         20.94184231	
          2.12000000	        -21.24389900	          5.52964336	         -8.65053535	          1.54379208	         20.56681893	          1.39945830	          3.92496208	         10.59013466	         21.26565667	
          2.13000000	        -20.95989560	          5.40548886	         -8.34402981	          1.56009951	         20.19263278	          1.50925091	          2.91335046	         10.78924170	         21.47120589	
          2.14000000	        -20.50234971	          5.28207573	         -7.70982034	          1.58148075	         19.83927390	          1.59909160	          1.90729025	         10.99429845	         21.59017279	
          2.15000000	        -20.12236769	          5.13588900	         -7.15719402	          1.56379468	         19.55576966	          1.66719439	          0.90912098	         11.17275348	         21.64482927	
          2.16000000	        -19.82836927	          4.95801026	         -6.69229135	          1.49718506	         19.35273921	          1.71456105	         -0.07005274	         11.31668851	         21.65960505	
          2.17000000	        -19.60521624	          4.75044284	         -6.29648865	          1.38642723	         19.22053626	          1.74574871	         -1.02025788	         11.43209701	         21.66126340	
          2.18000000	        -19.43398533	          4.51647267	         -5.94986677	          1.23959506	         19.14123558	          1.76657784	         -1.93449999	         11.53086003	         21.67559918	
          2.19000000	        -19.29760406	          4.25729954	         -5.63604236	          1.06361901	         19.09486732	          1.78303459	         -2.80923936	         11.62631543	         21.72562876	
          2.20000000	        -19.18296846	          3.97162935	         -5.34369892	          0.86294946	         19.06293616	          1.80071754	         -3.64389837	         11.73051547	         21.83044133	
          2.21000000	        -19.08068798	          3.65688606	         -5.06571301	          0.64007957	         19.02996199	          1.82453166	         -4.44040388	         11.85280622	         22.00507778	
          2.22000000	        -18.98401131	          3.31085511	         -4.79750778	          0.39669021	         18.98406036	          1.85844006	         -5.20316972	         11.99910488	         22.26176191	
          2.23000000	        -18.88786905	          2.93296915	         -4.53565757	          0.13462399	         18.91713861	          1.90524295	         -5.93959815	         12.17157935	         22.61250412	
          2.24000000	        -18.78815105	          2.52506455	         -4.27683276	         -0.14348477	         18.82484515	          1.96639664	         -6.66063613	         12.36867850	         23.07222717	
          2.25000000	        -18.68150041	          2.09140951	         -4.01754061	         -0.43409603	         18.70629407	          2.04197043	         -7.38062246	         12.58558990	         23.66075059	
          2.26000000	        -18.56573458	          1.63802632	         -3.75490136	         -0.73315648	         18.56356835	          2.13083190	         -8.11583585	         12.81513129	         24.40200106	
          2.27000000	        -18.44027021	          1.17190046	         -3.48762058	         -1.03650337	         18.40091676	          2.23099300	         -8.88165309	         13.04895580	         25.31977647	
          2.28000000	        -18.30642599	          0.70035601	         -3.21693058	         -1.34009955	         18.22378590	          2.34002903	         -9.68881935	         13.27880223	         26.43071856	
          2.29000000	        -18.16748600	          0.23071233	         -2.94722812	         -1.64004049	         18.03781964	          2.45547586	        -10.53973646	         13.49759354	         27.73611130	
          2.30000000	        -18.02845858	         -0.22983326	         -2.68618832	         -1.93239931	         17.84794192	          2.57513395	        -11.42573744	         13.70028079	         29.21455493	
          2.31000000	        -17.89553919	         -0.67425403	         -2.44423756	         -2.21305992	         17.65765121	          2.69723926	        -12.32617125	         13.88436273	         30.81774867	
          2.32000000	        -17.77532240	         -1.09582348	         -2.23334259	         -2.47768852	         17.46866865	          2.82048398	        -13.20987284	         14.04999029	         32.47153840	
          2.33000000	        -17.67385146	         -1.48839233	         -2.06520446	         -2.72192444	         17.28104498	          2.94389432	        -14.03913789	         14.19956664	         34.08358273	
          2.34000000	        -17.59565333	         -1.84677097	         -1.94916628	         -2.94175667	         17.09369047	          3.06661324	        -14.77555454	         14.33687043	         35.55702341	
          2.35000000	        -17.54297076	         -2.16712973	         -1.89035494	         -3.13398120	         16.90513129	          3.18768175	        -15.38635494	         14.46592747	         36.80700905	
          2.36000000	        -17.51535529	         -2.44735142	         -1.88852435	         -3.29662674	         16.71420998	          3.30592256	        -15.84978836	         14.59001451	         37.77538795	
          2.37000000	        -17.50974309	         -2.68729601	         -1.93790067	         -3.42928595	         16.52057501	          3.41997808	        -16.15844931	         14.71106910	         38.43942414	
          2.38000000	        -17.52095802	         -2.88894909	         -2.02798263	         -3.53330278	         16.32485748	          3.52849378	        -16.32002617	         14.82965406	         38.81248023	
          2.39000000	        -17.54253645	         -3.05634501	         -2.14510353	         -3.61173777	         16.12857398	          3.63035923	        -16.35546591	         14.94533043	         38.93719072	
          2.40000000	        -17.56766588	         -3.19521346	         -2.27436798	         -3.66907316	         15.93380549	          3.72491375	        -16.29508985	         15.05722383	         38.87392828	
          2.41000000	        -17.59000746	         -3.31233525	         -2.40151460	         -3.71065578	         15.74274201	          3.81203630	        -16.17357042	         15.16453011	         38.68845463	
          2.42000000	        -17.60433763	         -3.41470024	         -2.51442647	         -3.74200615	         15.55734125	          3.89207875	        -16.02506524	         15.26665883	         38.44255677	
          2.43000000	        -17.60694417	         -3.50863375	         -2.60408972	         -3.76814048	         15.37919631	          3.96567417	        -15.87940289	         15.36299478	         38.18937774	
          2.44000000	        -17.59586967	         -3.59906207	         -2.66510794	         -3.79304979	         15.20964679	          4.03349709	        -15.75969215	         15.45242735	         37.97228824	
          2.45000000	        -17.57098820	         -3.68904666	         -2.69585686	         -3.81937683	         15.04990326	          4.09608052	        -15.68102026	         15.53307004	         37.82424521	
          2.46000000	        -17.53392048	         -3.77965614	         -2.69835874	         -3.84830590	         14.90103415	          4.15375114	        -15.65000852	         15.60241901	         37.76570164	
          2.47000000	        -17.48774954	         -3.87014083	         -2.67783328	         -3.87962995	         14.76378555	          4.20666880	        -15.66519106	         15.65791154	         37.80158517	
          2.48000000	        -17.43656565	         -3.95836489	         -2.64191258	         -3.91199453	         14.63835784	          4.25492494	        -15.71838852	         15.69761952	         37.91958566	
          2.49000000	        -17.38494280	         -4.04142325	         -2.59962710	         -3.94331002	         14.52429681	          4.29865369	        -15.79705458	         15.72076587	         38.09184366	
          2.50000000	        -17.33744333	         -4.11632881	         -2.56030819	         -3.97127483	         14.42059440	          4.33811484	        -15.88729372	         15.72784440	         38.28090392	
